<svg xmlns="http://www.w3.org/2000/svg" fill="none" viewBox="0 0 128 128">
  <g clip-path="url(#a)">
    <path fill="#1E90FF" d="M0 0h128v128H0z"/>
    <path fill="#fff" d="M122.48 76.73v5.5h-11.22V79.7c0-5.17-2.2-9.46-7.92-9.46-6.16 0-7.6 4.95-7.6 10.12 0 6.05.56 8.14 6.39 10.45l8.58 3.41c9.9 3.74 11.77 10.01 11.77 21.45 0 13.2-4.84 22.99-19.36 22.99-10.9 0-19.14-8.03-19.14-18.59v-4.18H95.2v3.52c0 4.07 2.2 8.03 7.92 8.03 7.59 0 8.14-4.51 8.14-11.66 0-8.36-1-9.68-6.5-11.88l-8.02-3.3c-9.68-3.96-12.21-10.34-12.21-20.13 0-11.88 6.38-21.45 19.25-21.45 11.22 0 18.7 9.02 18.7 17.71Zm-39.19 0v5.5H72.07V79.7c0-5.17-2.2-9.46-7.92-9.46-6.16 0-7.6 4.95-7.6 10.12 0 6.05.56 8.14 6.39 10.45l8.58 3.41c9.9 3.74 11.77 10.01 11.77 21.45 0 13.2-4.84 22.99-19.36 22.99-10.9 0-19.14-8.03-19.14-18.59v-4.18H56v3.52c0 4.07 2.2 8.03 7.92 8.03 7.59 0 8.14-4.51 8.14-11.66 0-8.36-1-9.68-6.5-11.88l-8.02-3.3c-9.68-3.96-12.21-10.34-12.21-20.13 0-11.88 6.38-21.45 19.25-21.45 11.22 0 18.7 9.02 18.7 17.71Zm-39.95 38.94v4.84c0 9.68-7.81 18.15-17.82 18.15-8.58 0-18.48-4.18-18.48-18.48V77.06c0-10.23 7.37-18.04 18.26-18.04 10.34 0 18.04 7.81 18.04 18.7v4.4H32.12v-3.74c0-4.4-2.64-8.14-6.93-8.14-5.61 0-6.93 3.85-6.93 9.13v40.04c0 4.51 1.76 8.03 6.82 8.03 3.08 0 7.04-1.76 7.04-7.92v-3.85h11.22ZM7.13 52V6.43h9.66c7.36 0 11.46 4.42 11.46 11.78v21.31C28.25 47.97 23.9 52 16.22 52h-9.1Zm6.53-39.42v33.28h3c3.65 0 5.06-1.8 5.06-5.7V18.21c0-3.59-1.22-5.63-5.06-5.63h-3ZM31.18 52V6.43h19.45v6.15H37.71v13.37h11.26v6.15H37.71v13.37h12.92V52H31.18Zm20.49 0V6.43h9.53c8.45 0 11.59 5.57 11.59 11.52v1.67c0 4.86-1.6 6.65-4.48 8.44 3.07 1.48 4.48 4.23 4.48 8.96v2.56C72.79 47.52 69 52 60.56 52h-8.9Zm6.52-21.12v14.6h2.82c5.25 0 5.63-3.2 5.63-7.69 0-4.54-.83-6.91-5.57-6.91H58.2Zm0-18.3v12.54h2.95c4.35 0 5.5-2.24 5.5-6.4 0-4.03-1.47-6.14-5.76-6.14H58.2Zm38.65-6.15v35.33c0 5.95-4.74 10.62-10.56 10.62a10.54 10.54 0 0 1-10.56-10.62V6.43h6.52v34.69c0 3.2 1.73 4.74 4.04 4.74 2.3 0 4.03-1.54 4.03-4.74V6.43h6.53Zm2.54 34.82V17.18c0-7.42 5.63-11.13 10.95-11.13 5.3 0 10.94 3.71 10.94 11.13v2.3h-6.53v-2.3c0-3.13-2.05-4.6-4.41-4.6-2.37 0-4.42 1.47-4.42 4.6v24.07c0 3.13 2.05 4.6 4.42 4.6 2.36 0 4.41-1.47 4.41-4.6v-8.58h-5.18v-5.76h11.71v14.34c0 7.42-5.63 11.13-10.94 11.13-5.32 0-10.95-3.7-10.95-11.13Z"/>
  </g>
  <defs>
    <clipPath id="a">
      <path fill="#fff" d="M0 0h128v128H0z"/>
    </clipPath>
  </defs>
</svg>
